STARTFONT 2.1
COMMENT
COMMENT Converted from OpenType font "Q:\font stuff\winfont\Miss Ellen.ttf" by "otf2bdf 3.0".
COMMENT
FONT -FreeType-Miss Ellen-Medium-R-Normal--36-360-72-72-P-280-ISO10646-1
SIZE 36 72 72
FONTBOUNDINGBOX 54 51 -1 -11
STARTPROPERTIES 19
FOUNDRY "FreeType"
FAMILY_NAME "Miss Ellen"
WEIGHT_NAME "Medium"
SLANT "R"
SETWIDTH_NAME "Normal"
ADD_STYLE_NAME ""
PIXEL_SIZE 36
POINT_SIZE 360
RESOLUTION_X 72
RESOLUTION_Y 72
SPACING "P"
AVERAGE_WIDTH 280
CHARSET_REGISTRY "ISO10646"
CHARSET_ENCODING "1"
FONT_ASCENT 40
FONT_DESCENT 11
COPYRIGHT "© by Samuel Marcius 1999"
_OTF_FONTFILE "Q:\font stuff\winfont\Miss Ellen.ttf"
_OTF_PSNAME "MissEllen"
ENDPROPERTIES
CHARS 77
STARTCHAR 0020
ENCODING 32
SWIDTH 500 0
DWIDTH 18 0
BBX 0 0 0 0
BITMAP
ENDCHAR
STARTCHAR 0021
ENCODING 33
SWIDTH 277 0
DWIDTH 10 0
BBX 11 30 0 -1
BITMAP
FFE0
8020
8020
8020
8020
8020
8020
8020
8020
8020
8020
8020
8020
8020
8020
8020
8020
8020
8020
FFE0
8020
8020
8020
8020
8020
8020
8020
8020
8020
FFE0
ENDCHAR
STARTCHAR 0022
ENCODING 34
SWIDTH 527 0
DWIDTH 19 0
BBX 20 10 0 19
BITMAP
FFFFF0
802010
802010
802010
802010
802010
802010
802010
802010
FFFFF0
ENDCHAR
STARTCHAR 0024
ENCODING 36
SWIDTH 916 0
DWIDTH 33 0
BBX 34 49 0 -10
BITMAP
001FFE0000
0010020000
0010020000
0010020000
0010020000
0010020000
0010020000
0010020000
0010020000
0010020000
FFF003FFC0
8000000040
8000000040
8000000040
8000000040
8000000040
8000000040
8000000040
8000000040
801FFFFFC0
8000000040
8000000040
8000000040
8000000040
8000000040
8000000040
8000000040
8000000040
8000000040
FFFFFE0040
8000000040
8000000040
8000000040
8000000040
8000000040
8000000040
8000000040
8000000040
8000000040
FFF003FFC0
0010020000
0010020000
0010020000
0010020000
0010020000
0010020000
0010020000
0010020000
001FFE0000
ENDCHAR
STARTCHAR 0028
ENCODING 40
SWIDTH 583 0
DWIDTH 21 0
BBX 20 30 0 -1
BITMAP
FFFFF0
800010
800010
800010
800010
800010
800010
800010
800010
803FF0
802000
802000
802000
802000
802000
802000
802000
802000
802000
803FF0
800010
800010
800010
800010
800010
800010
800010
800010
800010
FFFFF0
ENDCHAR
STARTCHAR 0029
ENCODING 41
SWIDTH 583 0
DWIDTH 21 0
BBX 20 30 0 -1
BITMAP
FFFFF0
800010
800010
800010
800010
800010
800010
800010
800010
FFE010
002010
002010
002010
002010
002010
002010
002010
002010
002010
FFE010
800010
800010
800010
800010
800010
800010
800010
800010
800010
FFFFF0
ENDCHAR
STARTCHAR 002B
ENCODING 43
SWIDTH 833 0
DWIDTH 30 0
BBX 0 0 0 0
BITMAP
ENDCHAR
STARTCHAR 002D
ENCODING 45
SWIDTH 805 0
DWIDTH 29 0
BBX 30 11 0 9
BITMAP
FFFFFFFC
80000004
80000004
80000004
80000004
80000004
80000004
80000004
80000004
80000004
FFFFFFFC
ENDCHAR
STARTCHAR 002E
ENCODING 46
SWIDTH 388 0
DWIDTH 14 0
BBX 11 11 1 -1
BITMAP
FFE0
8020
8020
8020
8020
8020
8020
8020
8020
8020
FFE0
ENDCHAR
STARTCHAR 0030
ENCODING 48
SWIDTH 805 0
DWIDTH 29 0
BBX 30 30 0 -1
BITMAP
FFFFFFFC
80000004
80000004
80000004
80000004
80000004
80000004
80000004
80000004
803FF004
80201004
80201004
80201004
80201004
80201004
80201004
80201004
80201004
80201004
803FF004
80000004
80000004
80000004
80000004
80000004
80000004
80000004
80000004
80000004
FFFFFFFC
ENDCHAR
STARTCHAR 0031
ENCODING 49
SWIDTH 277 0
DWIDTH 10 0
BBX 11 30 0 -1
BITMAP
FFE0
8020
8020
8020
8020
8020
8020
8020
8020
8020
8020
8020
8020
8020
8020
8020
8020
8020
8020
8020
8020
8020
8020
8020
8020
8020
8020
8020
8020
FFE0
ENDCHAR
STARTCHAR 0032
ENCODING 50
SWIDTH 805 0
DWIDTH 29 0
BBX 30 30 0 -1
BITMAP
003FFFFC
00200004
00200004
00200004
00200004
00200004
00200004
00200004
00200004
FFFFF004
80000004
80000004
80000004
80000004
80000004
80000004
80000004
80000004
80000004
803FFFFC
80000004
80000004
80000004
80000004
80000004
80000004
80000004
80000004
80000004
FFFFFFFC
ENDCHAR
STARTCHAR 0033
ENCODING 51
SWIDTH 805 0
DWIDTH 29 0
BBX 30 30 0 -1
BITMAP
FFFFFFFC
80000004
80000004
80000004
80000004
80000004
80000004
80000004
80000004
FFFFF004
00200004
00200004
00200004
00200004
00200004
00200004
00200004
00200004
00200004
FFFFF004
80000004
80000004
80000004
80000004
80000004
80000004
80000004
80000004
80000004
FFFFFFFC
ENDCHAR
STARTCHAR 0034
ENCODING 52
SWIDTH 805 0
DWIDTH 29 0
BBX 30 30 0 -1
BITMAP
FFFFF000
80201000
80201000
80201000
80201000
80201000
80201000
80201000
80201000
80201FFC
80000004
80000004
80000004
80000004
80000004
80000004
80000004
80000004
80000004
FFE01FFC
00201000
00201000
00201000
00201000
00201000
00201000
00201000
00201000
00201000
003FF000
ENDCHAR
STARTCHAR 0035
ENCODING 53
SWIDTH 805 0
DWIDTH 29 0
BBX 30 30 0 -1
BITMAP
FFFFF000
80001000
80001000
80001000
80001000
80001000
80001000
80001000
80001000
807FFFFC
80000004
80000004
80000004
80000004
80000004
80000004
80000004
80000004
80000004
FFFFF004
80000004
80000004
80000004
80000004
80000004
80000004
80000004
80000004
80000004
FFFFFFFC
ENDCHAR
STARTCHAR 0036
ENCODING 54
SWIDTH 805 0
DWIDTH 29 0
BBX 30 30 0 -1
BITMAP
FFFFFFFC
80000004
80000004
80000004
80000004
80000004
80000004
80000004
80000004
803FFFFC
80000004
80000004
80000004
80000004
80000004
80000004
80000004
80000004
80000004
803FF004
80000004
80000004
80000004
80000004
80000004
80000004
80000004
80000004
80000004
FFFFFFFC
ENDCHAR
STARTCHAR 0037
ENCODING 55
SWIDTH 805 0
DWIDTH 29 0
BBX 30 30 0 -1
BITMAP
FFFFFFFC
80000004
80000004
80000004
80000004
80000004
80000004
80000004
80000004
FFFFF004
00200004
00200004
00200004
00200004
00200004
00200004
00200004
00200004
00200004
003FF004
00001004
00001004
00001004
00001004
00001004
00001004
00001004
00001004
00001004
00001FFC
ENDCHAR
STARTCHAR 0038
ENCODING 56
SWIDTH 805 0
DWIDTH 29 0
BBX 30 30 0 -1
BITMAP
FFFFFFFC
80000004
80000004
80000004
80000004
80000004
80000004
80000004
80000004
803FF004
80000004
80000004
80000004
80000004
80000004
80000004
80000004
80000004
80000004
803FF004
80000004
80000004
80000004
80000004
80000004
80000004
80000004
80000004
80000004
FFFFFFFC
ENDCHAR
STARTCHAR 0039
ENCODING 57
SWIDTH 805 0
DWIDTH 29 0
BBX 30 30 0 -1
BITMAP
FFFFFFFC
80000004
80000004
80000004
80000004
80000004
80000004
80000004
80000004
803FF004
80000004
80000004
80000004
80000004
80000004
80000004
80000004
80000004
80000004
FFFFF004
80000004
80000004
80000004
80000004
80000004
80000004
80000004
80000004
80000004
FFFFFFFC
ENDCHAR
STARTCHAR 003D
ENCODING 61
SWIDTH 805 0
DWIDTH 29 0
BBX 30 20 0 4
BITMAP
FFFFFFFC
80000004
80000004
80000004
80000004
80000004
80000004
80000004
80000004
FFFFFFFC
80000004
80000004
80000004
80000004
80000004
80000004
80000004
80000004
80000004
FFFFFFFC
ENDCHAR
STARTCHAR 003F
ENCODING 63
SWIDTH 805 0
DWIDTH 29 0
BBX 30 30 0 -1
BITMAP
FFFFFFFC
80000004
80000004
80000004
80000004
80000004
80000004
80000004
80000004
FFFFF004
00200004
00200004
00200004
00200004
00200004
00200004
00200004
00200004
00200004
003FFFFC
00201000
00201000
00201000
00201000
00201000
00201000
00201000
00201000
00201000
003FF000
ENDCHAR
STARTCHAR 0040
ENCODING 64
SWIDTH 1444 0
DWIDTH 52 0
BBX 53 51 0 -11
BITMAP
FFFFFFFFFFFFF8
80000000000008
80000000000008
80000000000008
80000000000008
80000000000008
80000000000008
80000000000008
80000000000008
80000000000008
80000000000008
801FFFFFFFC008
80100000004008
80100000004008
80100000004008
80100000004008
80100000004008
80100000004008
80100000004008
80100000004008
80100000004008
801FFFFE004008
80100000004008
80100000004008
80100000004008
80100000004008
80100000004008
80100000004008
80100000004008
80100000000008
80100FFF000008
80100000000008
80100000000008
80100000000008
80100000000008
80100000000008
80100000000008
80100000000008
80100000000008
801FFFFFFFFFF8
80000000000008
80000000000008
80000000000008
80000000000008
80000000000008
80000000000008
80000000000008
80000000000008
80000000000008
80000000000008
FFFFFFFFFFFFF8
ENDCHAR
STARTCHAR 0041
ENCODING 65
SWIDTH 805 0
DWIDTH 29 0
BBX 30 30 0 -1
BITMAP
FFFFFFFC
80000004
80000004
80000004
80000004
80000004
80000004
80000004
80000004
803FF004
80000004
80000004
80000004
80000004
80000004
80000004
80000004
80000004
80000004
803FF004
80201004
80201004
80201004
80201004
80201004
80201004
80201004
80201004
80201004
FFE01FFC
ENDCHAR
STARTCHAR 0042
ENCODING 66
SWIDTH 805 0
DWIDTH 29 0
BBX 30 30 0 -1
BITMAP
FFFFFFFC
80000004
80000004
80000004
80000004
80000004
80000004
80000004
80000004
803FF004
80000004
80000004
80000004
80000004
80000004
80000004
80000004
80000004
80000004
803FF004
80000004
80000004
80000004
80000004
80000004
80000004
80000004
80000004
80000004
FFFFFFFC
ENDCHAR
STARTCHAR 0043
ENCODING 67
SWIDTH 805 0
DWIDTH 29 0
BBX 30 30 0 -1
BITMAP
FFFFFFFC
80000004
80000004
80000004
80000004
80000004
80000004
80000004
80000004
803FFFFC
80200000
80200000
80200000
80200000
80200000
80200000
80200000
80200000
80200000
803FFFFC
80000004
80000004
80000004
80000004
80000004
80000004
80000004
80000004
80000004
FFFFFFFC
ENDCHAR
STARTCHAR 0044
ENCODING 68
SWIDTH 805 0
DWIDTH 29 0
BBX 30 30 0 -1
BITMAP
FFFFF000
80000800
80000400
80000200
80000100
80000080
80000040
80000020
80000010
803FF008
80201004
80201004
80201004
80201004
80201004
80201004
80201004
80201004
80201004
803FF004
80000008
80000010
80000020
80000040
80000080
80000100
80000200
80000400
80000800
FFFFF000
ENDCHAR
STARTCHAR 0045
ENCODING 69
SWIDTH 805 0
DWIDTH 29 0
BBX 30 30 0 -1
BITMAP
FFFFFFFC
80000004
80000004
80000004
80000004
80000004
80000004
80000004
80000004
807FFFFC
80001000
80001000
80001000
80001000
80001000
80001000
80001000
80001000
80001000
807FFFFC
80000004
80000004
80000004
80000004
80000004
80000004
80000004
80000004
80000004
FFFFFFFC
ENDCHAR
STARTCHAR 0046
ENCODING 70
SWIDTH 805 0
DWIDTH 29 0
BBX 30 30 0 -1
BITMAP
FFFFFFFC
80000004
80000004
80000004
80000004
80000004
80000004
80000004
80000004
803FFFFC
80000004
80000004
80000004
80000004
80000004
80000004
80000004
80000004
80000004
803FFFFC
80200000
80200000
80200000
80200000
80200000
80200000
80200000
80200000
80200000
FFE00000
ENDCHAR
STARTCHAR 0047
ENCODING 71
SWIDTH 805 0
DWIDTH 29 0
BBX 30 30 0 -1
BITMAP
FFFFFFFC
80000004
80000004
80000004
80000004
80000004
80000004
80000004
80000004
803FFFFC
80200004
80200004
80200004
80200004
80200004
80200004
80200004
80200004
80200004
803FF004
80000004
80000004
80000004
80000004
80000004
80000004
80000004
80000004
80000004
FFFFFFFC
ENDCHAR
STARTCHAR 0048
ENCODING 72
SWIDTH 805 0
DWIDTH 29 0
BBX 29 30 0 -1
BITMAP
FFC01FF8
80401008
80401008
80401008
80401008
80401008
80401008
80401008
80401008
807FF008
80000008
80000008
80000008
80000008
80000008
80000008
80000008
80000008
80000008
807FF008
80401008
80401008
80401008
80401008
80401008
80401008
80401008
80401008
80401008
FFC01FF8
ENDCHAR
STARTCHAR 0049
ENCODING 73
SWIDTH 277 0
DWIDTH 10 0
BBX 11 30 0 -1
BITMAP
FFE0
8020
8020
8020
8020
8020
8020
8020
8020
8020
8020
8020
8020
8020
8020
8020
8020
8020
8020
8020
8020
8020
8020
8020
8020
8020
8020
8020
8020
FFE0
ENDCHAR
STARTCHAR 004A
ENCODING 74
SWIDTH 805 0
DWIDTH 29 0
BBX 30 30 0 -1
BITMAP
003FFFFC
00200004
00200004
00200004
00200004
00200004
00200004
00200004
00200004
003FF004
00001004
00001004
00001004
00001004
00001004
00001004
00001004
00001004
00001004
FFFFF004
80000004
80000004
80000004
80000004
80000004
80000004
80000004
80000004
80000004
FFFFFFFC
ENDCHAR
STARTCHAR 004B
ENCODING 75
SWIDTH 805 0
DWIDTH 29 0
BBX 30 30 0 -1
BITMAP
FFFFF000
80201000
80201000
80201000
80201000
80201000
80201000
80201000
80201000
80201FFC
80000004
80000004
80000004
80000004
80000004
80000004
80000004
80000004
80000004
803FF004
80201004
80201004
80201004
80201004
80201004
80201004
80201004
80201004
80201004
FFE01FFC
ENDCHAR
STARTCHAR 004C
ENCODING 76
SWIDTH 805 0
DWIDTH 29 0
BBX 30 30 0 -1
BITMAP
FFE00000
80200000
80200000
80200000
80200000
80200000
80200000
80200000
80200000
80200000
80200000
80200000
80200000
80200000
80200000
80200000
80200000
80200000
80200000
803FFFFC
80000004
80000004
80000004
80000004
80000004
80000004
80000004
80000004
80000004
FFFFFFFC
ENDCHAR
STARTCHAR 004D
ENCODING 77
SWIDTH 805 0
DWIDTH 29 0
BBX 30 30 0 -1
BITMAP
FFFFFFFC
80000004
80000004
80000004
80000004
80000004
80000004
80000004
80000004
80000004
80201004
80201004
80201004
80201004
80201004
80201004
80201004
80201004
80201004
803FF004
80201004
80201004
80201004
80201004
80201004
80201004
80201004
80201004
80201004
FFE01FFC
ENDCHAR
STARTCHAR 004E
ENCODING 78
SWIDTH 805 0
DWIDTH 29 0
BBX 30 30 0 -1
BITMAP
FFFFFFFC
80000004
80000004
80000004
80000004
80000004
80000004
80000004
80000004
803FF004
80201004
80201004
80201004
80201004
80201004
80201004
80201004
80201004
80201004
80201004
80201004
80201004
80201004
80201004
80201004
80201004
80201004
80201004
80201004
FFE01FFC
ENDCHAR
STARTCHAR 004F
ENCODING 79
SWIDTH 805 0
DWIDTH 29 0
BBX 30 30 0 -1
BITMAP
FFFFFFFC
80000004
80000004
80000004
80000004
80000004
80000004
80000004
80000004
803FF004
80201004
80201004
80201004
80201004
80201004
80201004
80201004
80201004
80201004
803FF004
80000004
80000004
80000004
80000004
80000004
80000004
80000004
80000004
80000004
FFFFFFFC
ENDCHAR
STARTCHAR 0050
ENCODING 80
SWIDTH 805 0
DWIDTH 29 0
BBX 30 30 -1 -1
BITMAP
FFFFFFFC
80000004
80000004
80000004
80000004
80000004
80000004
80000004
80000004
80000004
803FF004
80000004
80000004
80000004
80000004
80000004
80000004
80000004
80000004
803FFFFC
80200000
80200000
80200000
80200000
80200000
80200000
80200000
80200000
80200000
FFE00000
ENDCHAR
STARTCHAR 0051
ENCODING 81
SWIDTH 805 0
DWIDTH 29 0
BBX 30 39 -1 -10
BITMAP
FFFFFFFC
80000004
80000004
80000004
80000004
80000004
80000004
80000004
80000004
803FF004
80201004
80201004
80201004
80201004
80201004
80201004
80201004
80201004
80201004
80000004
80000004
80000004
80000004
80000004
80000004
80000004
80000004
80000004
FFE01FFC
00201000
00201000
00201000
00201000
00201000
00201000
00201000
00201000
00201000
003FF000
ENDCHAR
STARTCHAR 0052
ENCODING 82
SWIDTH 805 0
DWIDTH 29 0
BBX 30 30 0 -1
BITMAP
FFFFFFFC
80000004
80000004
80000004
80000004
80000004
80000004
80000004
80000004
803FF004
80200004
80200004
80200004
80200004
80200004
80200004
80200004
80200004
80200004
80200FFC
80200004
80200004
80200004
80200004
80200004
80200004
80200004
80200004
80200004
FFFFFFFC
ENDCHAR
STARTCHAR 0053
ENCODING 83
SWIDTH 805 0
DWIDTH 29 0
BBX 30 30 0 -1
BITMAP
FFFFFFFC
80000004
80000004
80000004
80000004
80000004
80000004
80000004
80000004
807FFFFC
80000004
80000004
80000004
80000004
80000004
80000004
80000004
80000004
80000004
FFFFF004
80000004
80000004
80000004
80000004
80000004
80000004
80000004
80000004
80000004
FFFFFFFC
ENDCHAR
STARTCHAR 0054
ENCODING 84
SWIDTH 805 0
DWIDTH 29 0
BBX 30 30 0 -1
BITMAP
FFFFFFFC
80000004
80000004
80000004
80000004
80000004
80000004
80000004
80000004
FFE01FFC
00201000
00201000
00201000
00201000
00201000
00201000
00201000
00201000
00201000
00201000
00201000
00201000
00201000
00201000
00201000
00201000
00201000
00201000
00201000
003FF000
ENDCHAR
STARTCHAR 0055
ENCODING 85
SWIDTH 805 0
DWIDTH 29 0
BBX 30 30 0 -1
BITMAP
FFE01FFC
80201004
80201004
80201004
80201004
80201004
80201004
80201004
80201004
80201004
80201004
80201004
80201004
80201004
80201004
80201004
80201004
80201004
80201004
803FF004
80000004
80000004
80000004
80000004
80000004
80000004
80000004
80000004
80000004
FFFFFFFC
ENDCHAR
STARTCHAR 0056
ENCODING 86
SWIDTH 805 0
DWIDTH 29 0
BBX 30 30 0 -1
BITMAP
FFE01FFC
80201004
80201004
80201004
80201004
80201004
80201004
80201004
80201004
80201004
80201004
80201004
80201004
80201004
80201004
80201004
80201004
80201004
80201004
803FF004
40000008
20000010
10000020
08000040
04000080
02000100
01000200
00800400
00400800
003FF000
ENDCHAR
STARTCHAR 0057
ENCODING 87
SWIDTH 805 0
DWIDTH 29 0
BBX 30 30 0 -1
BITMAP
FFE01FFC
80201004
80201004
80201004
80201004
80201004
80201004
80201004
80201004
803FF004
80201004
80201004
80201004
80201004
80201004
80201004
80201004
80201004
80201004
80000004
80000004
80000004
80000004
80000004
80000004
80000004
80000004
80000004
80000004
FFFFFFFC
ENDCHAR
STARTCHAR 0058
ENCODING 88
SWIDTH 805 0
DWIDTH 29 0
BBX 30 30 0 -1
BITMAP
FFFFFFFC
80020004
80020004
80020004
80020004
80020004
80020004
80020004
80020004
80020004
80000004
80000004
80000004
80000004
FFC00FFC
80000004
80000004
80000004
80000004
80000004
80020004
80020004
80020004
80020004
80020004
80020004
80020004
80020004
80020004
FFFFFFFC
ENDCHAR
STARTCHAR 0059
ENCODING 89
SWIDTH 805 0
DWIDTH 29 0
BBX 30 30 0 -1
BITMAP
FFE01FFC
80201004
80201004
80201004
80201004
80201004
80201004
80201004
80201004
803FF004
80000004
80000004
80000004
80000004
80000004
80000004
80000004
80000004
80000004
FFFFF004
80000004
80000004
80000004
80000004
80000004
80000004
80000004
80000004
80000004
FFFFFFFC
ENDCHAR
STARTCHAR 005A
ENCODING 90
SWIDTH 805 0
DWIDTH 29 0
BBX 30 30 0 -1
BITMAP
FFFFFFFC
80000004
80000004
80000004
80000004
80000004
80000004
80000004
80000004
FFFFF004
80000004
80000004
80000004
80000004
80000004
80000004
80000004
80000004
80000004
807FFFFC
80000004
80000004
80000004
80000004
80000004
80000004
80000004
80000004
80000004
FFFFFFFC
ENDCHAR
STARTCHAR 005F
ENCODING 95
SWIDTH 805 0
DWIDTH 29 0
BBX 30 11 0 -1
BITMAP
FFFFFFFC
80000004
80000004
80000004
80000004
80000004
80000004
80000004
80000004
80000004
FFFFFFFC
ENDCHAR
STARTCHAR 0061
ENCODING 97
SWIDTH 805 0
DWIDTH 29 0
BBX 30 30 0 -1
BITMAP
FFFFFFFC
80000004
80000004
80000004
80000004
80000004
80000004
80000004
80000004
803FF004
80000004
80000004
80000004
80000004
80000004
80000004
80000004
80000004
80000004
803FF004
80201004
80201004
80201004
80201004
80201004
80201004
80201004
80201004
80201004
FFE01FFC
ENDCHAR
STARTCHAR 0062
ENCODING 98
SWIDTH 805 0
DWIDTH 29 0
BBX 30 30 0 -1
BITMAP
FFFFFFFC
80000004
80000004
80000004
80000004
80000004
80000004
80000004
80000004
803FF004
80000004
80000004
80000004
80000004
80000004
80000004
80000004
80000004
80000004
803FF004
80000004
80000004
80000004
80000004
80000004
80000004
80000004
80000004
80000004
FFFFFFFC
ENDCHAR
STARTCHAR 0063
ENCODING 99
SWIDTH 805 0
DWIDTH 29 0
BBX 30 30 0 -1
BITMAP
FFFFFFFC
80000004
80000004
80000004
80000004
80000004
80000004
80000004
80000004
803FFFFC
80200000
80200000
80200000
80200000
80200000
80200000
80200000
80200000
80200000
803FFFFC
80000004
80000004
80000004
80000004
80000004
80000004
80000004
80000004
80000004
FFFFFFFC
ENDCHAR
STARTCHAR 0064
ENCODING 100
SWIDTH 805 0
DWIDTH 29 0
BBX 30 30 0 -1
BITMAP
FFFFF000
80000800
80000400
80000200
80000100
80000080
80000040
80000020
80000010
803FF008
80201004
80201004
80201004
80201004
80201004
80201004
80201004
80201004
80201004
803FF004
80000008
80000010
80000020
80000040
80000080
80000100
80000200
80000400
80000800
FFFFF000
ENDCHAR
STARTCHAR 0065
ENCODING 101
SWIDTH 805 0
DWIDTH 29 0
BBX 30 30 0 -1
BITMAP
FFFFFFFC
80000004
80000004
80000004
80000004
80000004
80000004
80000004
80000004
807FFFFC
80001000
80001000
80001000
80001000
80001000
80001000
80001000
80001000
80001000
807FFFFC
80000004
80000004
80000004
80000004
80000004
80000004
80000004
80000004
80000004
FFFFFFFC
ENDCHAR
STARTCHAR 0066
ENCODING 102
SWIDTH 805 0
DWIDTH 29 0
BBX 30 30 0 -1
BITMAP
FFFFFFFC
80000004
80000004
80000004
80000004
80000004
80000004
80000004
80000004
803FFFFC
80000004
80000004
80000004
80000004
80000004
80000004
80000004
80000004
80000004
803FFFFC
80200000
80200000
80200000
80200000
80200000
80200000
80200000
80200000
80200000
FFE00000
ENDCHAR
STARTCHAR 0067
ENCODING 103
SWIDTH 805 0
DWIDTH 29 0
BBX 30 30 0 -1
BITMAP
FFFFFFFC
80000004
80000004
80000004
80000004
80000004
80000004
80000004
80000004
803FFFFC
80200004
80200004
80200004
80200004
80200004
80200004
80200004
80200004
80200004
803FF004
80000004
80000004
80000004
80000004
80000004
80000004
80000004
80000004
80000004
FFFFFFFC
ENDCHAR
STARTCHAR 0068
ENCODING 104
SWIDTH 805 0
DWIDTH 29 0
BBX 30 30 0 -1
BITMAP
FFE01FFC
80201004
80201004
80201004
80201004
80201004
80201004
80201004
80201004
803FF004
80000004
80000004
80000004
80000004
80000004
80000004
80000004
80000004
80000004
803FF004
80201004
80201004
80201004
80201004
80201004
80201004
80201004
80201004
80201004
FFE01FFC
ENDCHAR
STARTCHAR 0069
ENCODING 105
SWIDTH 277 0
DWIDTH 10 0
BBX 11 30 0 -1
BITMAP
FFE0
8020
8020
8020
8020
8020
8020
8020
8020
8020
8020
8020
8020
8020
8020
8020
8020
8020
8020
8020
8020
8020
8020
8020
8020
8020
8020
8020
8020
FFE0
ENDCHAR
STARTCHAR 006A
ENCODING 106
SWIDTH 805 0
DWIDTH 29 0
BBX 30 30 0 -1
BITMAP
003FFFFC
00200004
00200004
00200004
00200004
00200004
00200004
00200004
00200004
003FF004
00001004
00001004
00001004
00001004
00001004
00001004
00001004
00001004
00001004
FFFFF004
80000004
80000004
80000004
80000004
80000004
80000004
80000004
80000004
80000004
FFFFFFFC
ENDCHAR
STARTCHAR 006B
ENCODING 107
SWIDTH 805 0
DWIDTH 29 0
BBX 30 30 0 -1
BITMAP
FFFFF000
80201000
80201000
80201000
80201000
80201000
80201000
80201000
80201000
80201FFC
80000004
80000004
80000004
80000004
80000004
80000004
80000004
80000004
80000004
803FF004
80201004
80201004
80201004
80201004
80201004
80201004
80201004
80201004
80201004
FFE01FFC
ENDCHAR
STARTCHAR 006C
ENCODING 108
SWIDTH 805 0
DWIDTH 29 0
BBX 30 30 0 -1
BITMAP
FFE00000
80200000
80200000
80200000
80200000
80200000
80200000
80200000
80200000
80200000
80200000
80200000
80200000
80200000
80200000
80200000
80200000
80200000
80200000
803FFFFC
80000004
80000004
80000004
80000004
80000004
80000004
80000004
80000004
80000004
FFFFFFFC
ENDCHAR
STARTCHAR 006D
ENCODING 109
SWIDTH 805 0
DWIDTH 29 0
BBX 30 30 0 -1
BITMAP
FFFFFFFC
80000004
80000004
80000004
80000004
80000004
80000004
80000004
80000004
80000004
80201004
80201004
80201004
80201004
80201004
80201004
80201004
80201004
80201004
803FF004
80201004
80201004
80201004
80201004
80201004
80201004
80201004
80201004
80201004
FFE01FFC
ENDCHAR
STARTCHAR 006E
ENCODING 110
SWIDTH 805 0
DWIDTH 29 0
BBX 30 30 0 -1
BITMAP
FFFFFFFC
80000004
80000004
80000004
80000004
80000004
80000004
80000004
80000004
803FF004
80201004
80201004
80201004
80201004
80201004
80201004
80201004
80201004
80201004
80201004
80201004
80201004
80201004
80201004
80201004
80201004
80201004
80201004
80201004
FFE01FFC
ENDCHAR
STARTCHAR 006F
ENCODING 111
SWIDTH 805 0
DWIDTH 29 0
BBX 30 30 0 -1
BITMAP
FFFFFFFC
80000004
80000004
80000004
80000004
80000004
80000004
80000004
80000004
803FF004
80201004
80201004
80201004
80201004
80201004
80201004
80201004
80201004
80201004
803FF004
80000004
80000004
80000004
80000004
80000004
80000004
80000004
80000004
80000004
FFFFFFFC
ENDCHAR
STARTCHAR 0070
ENCODING 112
SWIDTH 805 0
DWIDTH 29 0
BBX 30 30 -1 -1
BITMAP
FFFFFFFC
80000004
80000004
80000004
80000004
80000004
80000004
80000004
80000004
80000004
803FF004
80000004
80000004
80000004
80000004
80000004
80000004
80000004
80000004
803FFFFC
80200000
80200000
80200000
80200000
80200000
80200000
80200000
80200000
80200000
FFE00000
ENDCHAR
STARTCHAR 0071
ENCODING 113
SWIDTH 805 0
DWIDTH 29 0
BBX 30 39 -1 -10
BITMAP
FFFFFFFC
80000004
80000004
80000004
80000004
80000004
80000004
80000004
80000004
803FF004
80201004
80201004
80201004
80201004
80201004
80201004
80201004
80201004
80201004
80000004
80000004
80000004
80000004
80000004
80000004
80000004
80000004
80000004
FFE01FFC
00201000
00201000
00201000
00201000
00201000
00201000
00201000
00201000
00201000
003FF000
ENDCHAR
STARTCHAR 0072
ENCODING 114
SWIDTH 805 0
DWIDTH 29 0
BBX 30 30 0 -1
BITMAP
FFFFFFFC
80000004
80000004
80000004
80000004
80000004
80000004
80000004
80000004
803FF004
80200004
80200004
80200004
80200004
80200004
80200004
80200004
80200004
80200004
80200FFC
80200004
80200004
80200004
80200004
80200004
80200004
80200004
80200004
80200004
FFFFFFFC
ENDCHAR
STARTCHAR 0073
ENCODING 115
SWIDTH 805 0
DWIDTH 29 0
BBX 30 30 0 -1
BITMAP
FFFFFFFC
80000004
80000004
80000004
80000004
80000004
80000004
80000004
80000004
807FFFFC
80000004
80000004
80000004
80000004
80000004
80000004
80000004
80000004
80000004
FFFFF004
80000004
80000004
80000004
80000004
80000004
80000004
80000004
80000004
80000004
FFFFFFFC
ENDCHAR
STARTCHAR 0074
ENCODING 116
SWIDTH 805 0
DWIDTH 29 0
BBX 30 30 0 -1
BITMAP
FFFFFFFC
80000004
80000004
80000004
80000004
80000004
80000004
80000004
80000004
FFE01FFC
00201000
00201000
00201000
00201000
00201000
00201000
00201000
00201000
00201000
00201000
00201000
00201000
00201000
00201000
00201000
00201000
00201000
00201000
00201000
003FF000
ENDCHAR
STARTCHAR 0075
ENCODING 117
SWIDTH 805 0
DWIDTH 29 0
BBX 30 30 0 -1
BITMAP
FFE01FFC
80201004
80201004
80201004
80201004
80201004
80201004
80201004
80201004
80201004
80201004
80201004
80201004
80201004
80201004
80201004
80201004
80201004
80201004
803FF004
80000004
80000004
80000004
80000004
80000004
80000004
80000004
80000004
80000004
FFFFFFFC
ENDCHAR
STARTCHAR 0076
ENCODING 118
SWIDTH 805 0
DWIDTH 29 0
BBX 30 30 0 -1
BITMAP
FFE01FFC
80201004
80201004
80201004
80201004
80201004
80201004
80201004
80201004
80201004
80201004
80201004
80201004
80201004
80201004
80201004
80201004
80201004
80201004
803FF004
40000008
20000010
10000020
08000040
04000080
02000100
01000200
00800400
00400800
003FF000
ENDCHAR
STARTCHAR 0077
ENCODING 119
SWIDTH 805 0
DWIDTH 29 0
BBX 30 30 0 -1
BITMAP
FFE01FFC
80201004
80201004
80201004
80201004
80201004
80201004
80201004
80201004
803FF004
80201004
80201004
80201004
80201004
80201004
80201004
80201004
80201004
80201004
80000004
80000004
80000004
80000004
80000004
80000004
80000004
80000004
80000004
80000004
FFFFFFFC
ENDCHAR
STARTCHAR 0078
ENCODING 120
SWIDTH 805 0
DWIDTH 29 0
BBX 30 30 0 -1
BITMAP
FFFFFFFC
80020004
80020004
80020004
80020004
80020004
80020004
80020004
80020004
80020004
80000004
80000004
80000004
80000004
FFC00FFC
80000004
80000004
80000004
80000004
80000004
80020004
80020004
80020004
80020004
80020004
80020004
80020004
80020004
80020004
FFFFFFFC
ENDCHAR
STARTCHAR 0079
ENCODING 121
SWIDTH 805 0
DWIDTH 29 0
BBX 30 30 0 -1
BITMAP
FFE01FFC
80201004
80201004
80201004
80201004
80201004
80201004
80201004
80201004
803FF004
80000004
80000004
80000004
80000004
80000004
80000004
80000004
80000004
80000004
FFFFF004
80000004
80000004
80000004
80000004
80000004
80000004
80000004
80000004
80000004
FFFFFFFC
ENDCHAR
STARTCHAR 007A
ENCODING 122
SWIDTH 805 0
DWIDTH 29 0
BBX 30 30 0 -1
BITMAP
FFFFFFFC
80000004
80000004
80000004
80000004
80000004
80000004
80000004
80000004
FFFFF004
80000004
80000004
80000004
80000004
80000004
80000004
80000004
80000004
80000004
807FFFFC
80000004
80000004
80000004
80000004
80000004
80000004
80000004
80000004
80000004
FFFFFFFC
ENDCHAR
STARTCHAR 00A0
ENCODING 160
SWIDTH 500 0
DWIDTH 18 0
BBX 0 0 0 0
BITMAP
ENDCHAR
STARTCHAR 2010
ENCODING 8208
SWIDTH 805 0
DWIDTH 29 0
BBX 30 11 0 9
BITMAP
FFFFFFFC
80000004
80000004
80000004
80000004
80000004
80000004
80000004
80000004
80000004
FFFFFFFC
ENDCHAR
ENDFONT
